<svg xmlns="http://www.w3.org/2000/svg" width="667" height="73" viewBox="0 0 667 73">
    <defs>
        <style>
            .cls-1{fill:#fff}
        </style>
    </defs>
    <g id="title" transform="translate(-9404.239 -7852.133)">
        <path id="패스_3" data-name="패스 3" class="cls-1" d="M9446.929 7880.681h-.178l-11.051 46.484h-14.171l-17.29-66.71h14.26l10.428 49.057h.179l10.516-49.057h14.438l10.964 49.057h.178l9.714-49.057h14.171l-17.112 66.71H9457.8z" transform="translate(0 -5.004)"/>
        <path id="패스_4" data-name="패스 4" class="cls-1" d="M9640.953 7860.455h42.778v11.888h-29.41v15.17h28.608v11.887h-28.608v15.879h29.41v11.887h-42.778z" transform="translate(-142.333 -5.004)"/>
        <path id="패스_5" data-name="패스 5" class="cls-1" d="M9804.521 7913.238h-24.509l-4.367 13.927h-14.437l24.42-66.71h14.081l24.063 66.71h-14.7zm-12.12-36.727h-.179l-8.468 25.9h17.2z" transform="translate(-214.656 -5.004)"/>
        <path id="패스_6" data-name="패스 6" class="cls-1" d="M9938.906 7860.455h25.223c20.32 0 32.264 11.888 32.264 33.355 0 21.291-14.795 33.355-31.906 33.355h-25.58zm24.688 55.356c13.727 0 18.895-11.71 18.895-22.089 0-11.177-4.812-21.912-19.963-21.912h-10.25v44z" transform="translate(-321.511 -5.004)"/>
        <path id="패스_7" data-name="패스 7" class="cls-1" d="M10134.021 7900.819h-7.843v26.347h-13.369v-66.71h25.043c14.082 0 22.1 8.783 22.1 19.872 0 7.008-3.832 16.146-12.478 18.718l15.6 28.121h-15.954zm1.069-10.823c9.18 0 11.5-4.878 11.5-9.137 0-4.79-2.317-9.049-11.942-9.049h-8.467V7890z" transform="translate(-426.084 -5.004)"/>
        <path id="패스_8" data-name="패스 8" class="cls-1" d="M10261.9 7860.455h42.778v11.888h-29.41v15.17h28.608v11.887h-28.608v15.879h29.41v11.887h-42.778z" transform="translate(-515.736 -5.004)"/>
        <path id="패스_9" data-name="패스 9" class="cls-1" d="M10694.1 7876.136c0-4.614-4.457-7.453-9.8-7.453-6.684 0-10.694 2.928-10.694 7.364 0 4.614 4.457 6.832 7.754 7.9l12.3 3.9c8.913 2.839 15.24 7.985 15.24 18.278 0 8.162-5.882 20.406-24.42 20.406-23.261 0-25.4-14.995-25.4-20.939l13.368-.266c0 7.1 5.615 9.848 12.121 9.848 4.544 0 10.962-2.217 10.962-7.363 0-3.55-1.516-5.412-8.11-7.808l-14.616-5.235c-7.4-2.662-12.566-9.139-12.566-16.68 0-8.518 5.883-20.762 23.262-20.762 20.677 0 23.974 13.664 23.974 18.543z" transform="translate(-754.572 -3.122)"/>
        <path id="패스_10" data-name="패스 10" class="cls-1" d="M10814.65 7860.455h42.778v11.888h-29.41v15.17h28.608v11.887h-28.608v15.879h29.41v11.887h-42.778z" transform="translate(-848.129 -5.004)"/>
        <path id="패스_11" data-name="패스 11" class="cls-1" d="M10972.435 7900.819h-7.843v26.347h-13.369v-66.71h25.044c14.082 0 22.1 8.783 22.1 19.872 0 7.008-3.832 16.146-12.478 18.718l15.6 28.121h-15.951zm1.065-10.819c9.181 0 11.5-4.878 11.5-9.137 0-4.79-2.317-9.049-11.942-9.049h-8.467V7890z" transform="translate(-930.248 -5.004)"/>
        <path id="패스_12" data-name="패스 12" class="cls-1" d="M10478.461 7925.133h-66.105a13.722 13.722 0 0 1-13.734-13.677 13.486 13.486 0 0 1 5.061-10.446 26.868 26.868 0 0 1 3.186-2.031l25.357-15.287 6.2 10.189-25.7 15.5-.2.1a14.789 14.789 0 0 0-1.59 1.011 2.045 2.045 0 0 0-.346.968 1.793 1.793 0 0 0 1.773 1.766h66.105a1.793 1.793 0 0 0 1.773-1.766 1.733 1.733 0 0 0-.348-1.038l-.217-.247-36.172-28.635-.1-.083a16.689 16.689 0 0 1-1.678-23.569 16.849 16.849 0 0 1 23.549-1.775l4.7 3.682-7.393 9.364-5.027-3.944a4.839 4.839 0 0 0-6.8.479 4.817 4.817 0 0 0 .406 6.7l36.8 29.134 1.176 1.346a13.654 13.654 0 0 1-10.68 22.264zm-67.5-14.691z" transform="translate(-597.955)"/>
    </g>
</svg>
