<svg xmlns="http://www.w3.org/2000/svg" width="105" height="105" viewBox="0 0 105 105">
    <defs>
        <style>
            .cls-2{fill:#777a80}
        </style>
    </defs>
    <g id="ic" transform="translate(-474.758 -144.016)">
        <path id="사각형_5115" data-name="사각형 5115" transform="translate(474.758 144.016)" style="fill:none" d="M0 0h105v105H0z"/>
        <g id="그룹_6634" data-name="그룹 6634" transform="translate(487.038 153.862)">
            <path id="패스_593" data-name="패스 593" class="cls-2" d="M11972.886 5282.865a20.578 20.578 0 1 1 20.577-20.578 20.6 20.6 0 0 1-20.577 20.578zm0-36.738a16.161 16.161 0 1 0 16.161 16.161 16.179 16.179 0 0 0-16.161-16.162z" transform="translate(-11912.767 -5198.007)"/>
            <path id="패스_594" data-name="패스 594" class="cls-2" d="M11982.626 5271.123a1.963 1.963 0 0 1-1.963-1.963v-11.708a1.963 1.963 0 1 1 3.926 0v11.708a1.963 1.963 0 0 1-1.963 1.963z" transform="translate(-11922.507 -5202.74)"/>
            <circle id="타원_15" data-name="타원 15" class="cls-2" cx="2.226" cy="2.226" r="2.226" transform="translate(57.894 71.219)"/>
            <path id="패스_595" data-name="패스 595" class="cls-2" d="M11894.284 5256.051a2.212 2.212 0 0 1-2.21-2.208v-76.494a2.209 2.209 0 0 1 2.21-2.209h49.27a2.211 2.211 0 0 1 1.605.692l14.44 15.291a2.206 2.206 0 0 1 .6 1.516v18.62a2.208 2.208 0 1 1-4.415 0v-17.742l-13.185-13.959h-46.108v72.065l29.888-.165h.012a2.209 2.209 0 0 1 .013 4.417l-32.108.177z" transform="translate(-11892.074 -5175.139)"/>
            <path id="패스_596" data-name="패스 596" class="cls-2" d="M11929.889 5266.479h-19a2.208 2.208 0 1 1 0-4.417h19a2.208 2.208 0 0 1 0 4.417z" transform="translate(-11897.778 -5204.999)"/>
            <path id="패스_597" data-name="패스 597" class="cls-2" d="M11940.374 5241.535h-28.969a2.208 2.208 0 0 1 0-4.417h28.969a2.208 2.208 0 0 1 0 4.417z" transform="translate(-11897.956 -5196.43)"/>
            <path id="패스_598" data-name="패스 598" class="cls-2" d="M11916.814 5213.822h-4.694a2.209 2.209 0 1 1 0-4.417h4.694a2.209 2.209 0 1 1 0 4.417z" transform="translate(-11898.202 -5186.91)"/>
            <path id="패스_599" data-name="패스 599" class="cls-2" d="M11946.928 5213.822h-16.442a2.209 2.209 0 0 1 0-4.417h16.442a2.209 2.209 0 0 1 0 4.417z" transform="translate(-11904.512 -5186.91)"/>
            <path id="패스_600" data-name="패스 600" class="cls-2" d="M11983.5 5196.822h-14.973a2.21 2.21 0 0 1-2.208-2.209v-14.653h4.416v12.44h12.765z" transform="translate(-11917.579 -5176.795)"/>
        </g>
    </g>
</svg>
