<svg xmlns="http://www.w3.org/2000/svg" width="200" height="22" viewBox="0 0 200 22">
    <defs>
        <style>
            .cls-1{fill:#fff}
        </style>
    </defs>
    <g id="gnb_logo" transform="translate(-9404.239 -7852.133)">
        <path id="패스_3" data-name="패스 3" class="cls-1" d="M9417.051 7866.553H9417l-3.316 14.016h-4.252l-5.188-20.113h4.278l3.129 14.79h.054l3.157-14.79h4.331l3.291 14.79h.054l2.914-14.79h4.254l-5.136 20.113h-4.253z" transform="translate(-.001 -7.326)"/>
        <path id="패스_4" data-name="패스 4" class="cls-1" d="M9640.953 7860.455h12.838v3.585h-8.825v4.573h8.585v3.584h-8.585v4.787h8.825v3.584h-12.838z" transform="translate(-208.39 -7.326)"/>
        <path id="패스_5" data-name="패스 5" class="cls-1" d="M9774.207 7876.369h-7.356l-1.31 4.2h-4.333l7.329-20.113h4.226l7.222 20.113h-4.414zm-3.638-11.072h-.054l-2.54 7.81h5.162z" transform="translate(-314.3 -7.326)"/>
        <path id="패스_6" data-name="패스 6" class="cls-1" d="M9938.907 7860.455h7.569c6.1 0 9.682 3.585 9.682 10.057 0 6.419-4.44 10.057-9.574 10.057h-7.677zm7.409 16.689c4.118 0 5.669-3.53 5.669-6.659 0-3.37-1.444-6.606-5.99-6.606h-3.075v13.266z" transform="translate(-470.758 -7.326)"/>
        <path id="패스_7" data-name="패스 7" class="cls-1" d="M10119.174 7872.625h-2.352v7.943h-4.013v-20.113h7.515c4.227 0 6.633 2.648 6.633 5.992 0 2.112-1.15 4.867-3.743 5.643l4.681 8.479h-4.788zm.322-3.263c2.755 0 3.45-1.472 3.45-2.755 0-1.444-.7-2.729-3.585-2.729h-2.539v5.483z" transform="translate(-623.873 -7.326)"/>
        <path id="패스_8" data-name="패스 8" class="cls-1" d="M10261.9 7860.455h12.838v3.585h-8.826v4.573h8.585v3.584h-8.585v4.787h8.826v3.584h-12.838z" transform="translate(-755.14 -7.326)"/>
        <path id="패스_9" data-name="패스 9" class="cls-1" d="M10669.59 7863c0-1.392-1.338-2.247-2.942-2.247-2 0-3.209.883-3.209 2.22 0 1.392 1.338 2.06 2.326 2.381l3.691 1.176c2.675.856 4.573 2.408 4.573 5.511 0 2.46-1.766 6.15-7.328 6.15-6.979 0-7.622-4.52-7.622-6.312l4.013-.08c0 2.14 1.685 2.968 3.638 2.968 1.363 0 3.288-.667 3.288-2.219 0-1.07-.454-1.632-2.434-2.354l-4.387-1.578a5.449 5.449 0 0 1-3.771-5.028c0-2.567 1.766-6.259 6.98-6.259 6.2 0 7.194 4.119 7.194 5.59z" transform="translate(-1104.845 -4.572)"/>
        <path id="패스_10" data-name="패스 10" class="cls-1" d="M10814.651 7860.455h12.838v3.585h-8.825v4.573h8.584v3.584h-8.584v4.787h8.825v3.584h-12.838z" transform="translate(-1241.838 -7.326)"/>
        <path id="패스_11" data-name="패스 11" class="cls-1" d="M10957.588 7872.625h-2.352v7.943h-4.013v-20.113h7.515c4.227 0 6.634 2.648 6.634 5.992 0 2.112-1.15 4.867-3.744 5.643l4.68 8.479h-4.787zm.321-3.263c2.757 0 3.45-1.472 3.45-2.755 0-1.444-.693-2.729-3.582-2.729h-2.541v5.483z" transform="translate(-1362.069 -7.326)"/>
        <path id="패스_12" data-name="패스 12" class="cls-1" d="M10422.581 7874.134h-19.838a4.127 4.127 0 0 1-4.122-4.122 4.068 4.068 0 0 1 1.519-3.148 7.89 7.89 0 0 1 .957-.611l7.609-4.607 1.859 3.07-7.715 4.67-.061.031a4.327 4.327 0 0 0-.477.3.627.627 0 0 0-.1.292.539.539 0 0 0 .533.532h19.838a.54.54 0 0 0 .533-.532.529.529 0 0 0-.1-.312l-.066-.074-10.854-8.63-.029-.025a5.036 5.036 0 0 1 6.564-7.638l1.41 1.108-2.218 2.823-1.509-1.189a1.442 1.442 0 0 0-2.386 1.194 1.434 1.434 0 0 0 .467.97l11.044 8.78.353.405a4.118 4.118 0 0 1-3.2 6.71zm-20.255-4.428z" transform="translate(-875.529)"/>
    </g>
</svg>
