<svg id="img_ic" xmlns="http://www.w3.org/2000/svg" width="110" height="92" viewBox="0 0 110 92">
    <defs>
        <style>
            .cls-1{fill:#a3a3a3}
        </style>
    </defs>
    <g id="그룹_6586" data-name="그룹 6586" transform="translate(17.451 34.604)">
        <path id="패스_560" data-name="패스 560" class="cls-1" d="M3697.149 5234.342a1.281 1.281 0 0 1-.948-2.141l18.6-20.523.043-.045a3.683 3.683 0 0 1 5.185-.018l18.05 16.793a1.281 1.281 0 0 1-1.745 1.876l-18.065-16.808-.033-.032a1.121 1.121 0 0 0-1.563-.019l-18.578 20.5a1.279 1.279 0 0 1-.946.417z" transform="translate(-3695.869 -5210.557)"/>
        <path id="패스_561" data-name="패스 561" class="cls-1" d="M3889.348 5250.785a1.276 1.276 0 0 1-.868-.34l-15.387-14.212-.037-.035a1.126 1.126 0 0 0-1.581 0l-5.5 5.5a1.281 1.281 0 0 1-1.811-1.811l5.5-5.5a3.686 3.686 0 0 1 5.184-.021l15.371 14.2a1.281 1.281 0 0 1-.869 2.222z" transform="translate(-3830.701 -5228.828)"/>
    </g>
    <circle id="타원_1" data-name="타원 1" cx="15" cy="15" r="15" transform="translate(71 50)" style="fill:#e2e2e2"/>
    <path id="패스_562" data-name="패스 562" class="cls-1" d="M3934.893 5164.835a5.371 5.371 0 1 1 5.372-5.371 5.378 5.378 0 0 1-5.372 5.371zm0-8.181a2.81 2.81 0 1 0 2.81 2.81 2.813 2.813 0 0 0-2.81-2.81z" transform="translate(-3866.031 -5130.615)"/>
    <path id="패스_563" data-name="패스 563" class="cls-1" d="M3706.652 5157.506h-60.1a1.281 1.281 0 0 1-1.281-1.281v-55.532a1.28 1.28 0 0 1 1.281-1.28h78.665a1.28 1.28 0 0 1 1.281 1.28V5132a1.281 1.281 0 0 1-2.562 0v-30.025h-76.1v52.97h58.819a1.281 1.281 0 1 1 0 2.561z" transform="translate(-3637.79 -5086.709)"/>
    <path id="패스_564" data-name="패스 564" class="cls-1" d="M4021.133 5337.294a1.278 1.278 0 0 1-.906-.375l-5.327-5.328-5.327 5.328a1.281 1.281 0 0 1-1.811-1.812l6.233-6.233a1.281 1.281 0 0 1 1.811 0l6.233 6.233a1.281 1.281 0 0 1-.906 2.187z" transform="translate(-3928.553 -5270.657)"/>
    <path id="패스_565" data-name="패스 565" class="cls-1" d="M4040.3 5347.063a1.28 1.28 0 0 1-1.281-1.28v-14.024a1.281 1.281 0 1 1 2.562 0v14.024a1.281 1.281 0 0 1-1.281 1.28z" transform="translate(-3953.953 -5272.244)"/>
    <path id="패스_566" data-name="패스 566" class="cls-1" d="M3980.96 5318.921a15.96 15.96 0 1 1 15.96-15.96 15.979 15.979 0 0 1-15.96 15.96zm0-29.359a13.4 13.4 0 1 0 13.4 13.4 13.414 13.414 0 0 0-13.4-13.4z" transform="translate(-3894.519 -5237.334)"/>
    <path id="사각형_5086" data-name="사각형 5086" style="fill:none" d="M0 0h110v92H0z"/>
</svg>
