<svg xmlns="http://www.w3.org/2000/svg" width="60" height="60" viewBox="0 0 60 60">
    <defs>
        <style>
            .cls-1{fill:#17191d}
        </style>
    </defs>
    <g id="ic" transform="translate(-467 -140)">
        <g id="그룹_6614" data-name="그룹 6614" transform="translate(-415.254 -755.755)">
            <g id="그룹_6613" data-name="그룹 6613">
                <g id="그룹_6612" data-name="그룹 6612">
                    <path id="패스_577" data-name="패스 577" class="cls-1" d="M913.235 941.665a1.441 1.441 0 0 1-1.394-1.8l1.833-7.028a1.442 1.442 0 0 1 .375-.655l11.145-11.144a1.482 1.482 0 0 1 2.038 0l5.194 5.194a1.441 1.441 0 0 1 0 2.038l-11.144 11.14a1.433 1.433 0 0 1-.655.375l-7.028 1.834a1.453 1.453 0 0 1-.364.046zm3.129-7.726-1.113 4.27 4.27-1.114 9.848-9.849-3.156-3.156z"/>
                    <path id="패스_578" data-name="패스 578" class="cls-1" d="M932.044 928.036 930.006 926l1.986-1.986a1.8 1.8 0 1 0-2.545-2.545l-1.986 1.986-2.039-2.038 1.987-1.987a4.682 4.682 0 0 1 6.621 6.622z"/>
                    <path id="사각형_5114" data-name="사각형 5114" class="cls-1" transform="rotate(-45 1584.722 -636.247)" d="M0 0h2.882v7.446H0z"/>
                </g>
            </g>
            <path id="패스_579" data-name="패스 579" class="cls-1" d="M920.1 945.755h-29.4a1.441 1.441 0 0 1-1.441-1.442v-36.926a1.441 1.441 0 0 1 1.441-1.441h23.7a1.447 1.447 0 0 1 1 .4l5.7 5.471a1.442 1.442 0 0 1 .443 1.04v9.4a1.441 1.441 0 0 1-2.882 0v-8.785l-4.838-4.643h-21.686v34.043H920.1a1.441 1.441 0 0 1 0 2.883z"/>
            <path id="패스_580" data-name="패스 580" class="cls-1" d="M897.614 918.335h-1.73a1.441 1.441 0 0 1 0-2.883h1.73a1.441 1.441 0 0 1 0 2.883z"/>
            <path id="패스_581" data-name="패스 581" class="cls-1" d="M909.722 918.335h-8.072a1.441 1.441 0 0 1 0-2.883h8.072a1.441 1.441 0 0 1 0 2.883z"/>
            <path id="패스_582" data-name="패스 582" class="cls-1" d="M914.476 926.581h-18.45a1.441 1.441 0 0 1 0-2.882h18.45a1.441 1.441 0 1 1 0 2.882z"/>
            <path id="패스_583" data-name="패스 583" class="cls-1" d="M908.711 935.23h-12.685a1.441 1.441 0 0 1 0-2.883h12.685a1.441 1.441 0 0 1 0 2.883z"/>
            <path id="패스_584" data-name="패스 584" class="cls-1" d="M920.1 914.876h-6.246a1.442 1.442 0 0 1-1.442-1.442v-6.047h2.883v4.606h4.8z"/>
        </g>
        <path id="사각형_5115" data-name="사각형 5115" transform="translate(467 140)" style="fill:none" d="M0 0h60v60H0z"/>
    </g>
</svg>
