<svg xmlns="http://www.w3.org/2000/svg" width="44" height="86" viewBox="0 0 44 86">
    <defs>
        <style>
            .cls-1{fill:#fff}.cls-2{fill:none}
        </style>
    </defs>
    <g id="scroll_ic" transform="translate(-962 -688)">
        <g id="그룹_213" data-name="그룹 213" transform="translate(-3353 -1122.016)">
            <path id="패스_557" data-name="패스 557" class="cls-1" d="M4337 1871.016a20.023 20.023 0 0 1-20-20v-19a20 20 0 1 1 40 0v19a20.023 20.023 0 0 1-20 20zm0-57a18.021 18.021 0 0 0-18 18v19a18 18 0 0 0 36 0v-19a18.021 18.021 0 0 0-18-18z"/>
            <path id="패스_558" data-name="패스 558" class="cls-1" d="M4337 1830.937a1 1 0 0 1-1-1v-6.064a1 1 0 0 1 2 0v6.064a1 1 0 0 1-1 1z"/>
        </g>
        <path id="사각형_270" data-name="사각형 270" class="cls-2" transform="translate(962 688)" d="M0 0h44v64H0z"/>
        <g id="down_ic" transform="translate(-3429 -1125)">
            <path id="사각형_271" data-name="사각형 271" class="cls-2" transform="translate(4401 1883)" d="M0 0h25v16H0z"/>
            <path id="패스_559" data-name="패스 559" class="cls-1" d="m4336.548 1900.077-10.422-10.422 1.414-1.414 9.008 9.007 9.007-9.007 1.414 1.414z" transform="translate(76.874 -2.93)"/>
        </g>
    </g>
</svg>
